<?xml version="1.0" encoding="UTF-8"?>
<svg width="655px" height="366px" viewBox="0 0 655 366" version="1.1" xmlns="http://www.w3.org/2000/svg" xmlns:xlink="http://www.w3.org/1999/xlink">
    <title>Imported Layers</title>
    <defs>
        <filter x="-2.5%" y="-4.7%" width="105.1%" height="109.4%" filterUnits="objectBoundingBox" id="filter-1">
            <feOffset dx="1" dy="2" in="SourceAlpha" result="shadowOffsetOuter1"></feOffset>
            <feGaussianBlur stdDeviation="3" in="shadowOffsetOuter1" result="shadowBlurOuter1"></feGaussianBlur>
            <feColorMatrix values="0 0 0 0 0.424475186   0 0 0 0 0.418783534   0 0 0 0 0.418783534  0 0 0 0.5 0" type="matrix" in="shadowBlurOuter1" result="shadowMatrixOuter1"></feColorMatrix>
            <feMerge>
                <feMergeNode in="shadowMatrixOuter1"></feMergeNode>
                <feMergeNode in="SourceGraphic"></feMergeNode>
            </feMerge>
        </filter>
    </defs>
    <g id="Page-1" stroke="none" stroke-width="1" fill="none" fill-rule="evenodd">
        <g id="Imported-Layers" filter="url(#filter-1)" transform="translate(12.000000, 12.000000)">
            <path d="M185.667161,152.821622 C185.667161,178.459297 166.319554,199.243038 142.452839,199.243038 C118.586698,199.243038 99.2390909,178.459297 99.2390909,152.821622 C99.2390909,127.183946 118.586698,106.400205 142.452839,106.400205 C166.319554,106.400205 185.667161,127.183946 185.667161,152.821622" id="Fill-1" fill="#FFFFFF"></path>
            <path d="M96.3709091,218.859665 C96.3709091,247.390476 74.8400418,270.518919 48.2812518,270.518919 C21.7218882,270.518919 0.191020909,247.390476 0.191020909,218.859665 C0.191020909,190.328854 21.7218882,167.199795 48.2812518,167.199795 C74.8400418,167.199795 96.3709091,190.328854 96.3709091,218.859665" id="Fill-2" fill="#FFFFFF"></path>
            <path d="M118.742727,173.156757 C118.742727,189.8328 106.158293,203.351351 90.6345455,203.351351 C75.1107982,203.351351 62.5263636,189.8328 62.5263636,173.156757 C62.5263636,156.480714 75.1107982,142.962162 90.6345455,142.962162 C106.158293,142.962162 118.742727,156.480714 118.742727,173.156757" id="Fill-3" fill="#FFFFFF"></path>
            <path d="M91.9728391,288.389189 C91.9728391,312.212108 73.9950755,331.524324 51.8182936,331.524324 C29.6415118,331.524324 11.6637482,312.212108 11.6637482,288.389189 C11.6637482,264.56627 29.6415118,245.254054 51.8182936,245.254054 C73.9950755,245.254054 91.9728391,264.56627 91.9728391,288.389189" id="Fill-4" fill="#FFFFFF"></path>
            <path d="M393.13193,185.275881 C393.13193,212.388162 372.671468,234.367362 347.432615,234.367362 C322.193189,234.367362 301.732727,212.388162 301.732727,185.275881 C301.732727,158.162984 322.193189,136.183784 347.432615,136.183784 C372.671468,136.183784 393.13193,158.162984 393.13193,185.275881" id="Fill-5" fill="#FFFFFF"></path>
            <path d="M488.738182,196.572973 C488.738182,213.249016 476.153747,226.767568 460.63,226.767568 C445.106253,226.767568 432.521818,213.249016 432.521818,196.572973 C432.521818,179.89693 445.106253,166.378378 460.63,166.378378 C476.153747,166.378378 488.738182,179.89693 488.738182,196.572973" id="Fill-6" fill="#FFFFFF"></path>
            <path d="M592.183748,242.070065 C592.183748,266.290443 573.906546,285.924324 551.360343,285.924324 C528.813565,285.924324 510.536364,266.290443 510.536364,242.070065 C510.536364,217.850303 528.813565,198.216422 551.360343,198.216422 C573.906546,198.216422 592.183748,217.850303 592.183748,242.070065" id="Fill-7" fill="#FFFFFF"></path>
            <path d="M527.171818,220.605405 C527.171818,234.104854 516.98461,245.048854 504.417385,245.048854 C491.850733,245.048854 481.663525,234.104854 481.663525,220.605405 C481.663525,207.105957 491.850733,196.161957 504.417385,196.161957 C516.98461,196.161957 527.171818,207.105957 527.171818,220.605405" id="Fill-8" fill="#FFFFFF"></path>
            <polyline id="Fill-9" fill="#FFFFFF" points="50.2889791 331.935341 561.207385 331.935341 561.59 273.188984 587.977273 273.188984 461.777273 203.762368 231.55807 148.302908 146.277273 153.643038 44.9346573 228.821416 50.2889791 331.935341"></polyline>
            <path d="M225.231435,36.2218054 C225.231435,36.2218054 229.447662,41.2741622 231.060154,45.8273838 C232.673219,50.3806054 232.065738,56.8835351 232.065738,56.8835351 L220.719785,45.6757946 L225.231435,36.2218054" id="Fill-10" fill="#442211"></path>
            <polyline id="Fill-11" fill="#EDC6A6" points="163.646982 146.46227 169.288695 143.89573 175.24763 129.853395 196.929364 157.042703 185.466388 157.558476 176.842913 153.577719 168.216569 156.895427 163.541433 144.976573"></polyline>
            <polyline id="Fill-12" fill="#97DCFF" points="210.988617 164.222854 157.303711 161.703762 170.914955 157.390865 169.098822 150.071449 163.541433 144.976573 136.145134 158.955438 133.937781 168.614627 139.459605 175.253124 217.647962 187.770941 210.988617 164.222854"></polyline>
            <polyline id="Fill-13" fill="#97DCFF" points="284.645821 129.24827 279.576596 97.4052973 267.653565 105.753795 258.019342 94.2632108 280.766892 78.8485622 288.536796 81.7885297 302.351681 141.609568 284.645821 129.24827"></polyline>
            <polyline id="Fill-14" fill="#79BFF2" points="188.416026 159.584595 199.915141 159.99253 194.110515 153.469265"></polyline>
            <path d="M164.686411,117.890173 C164.686411,117.890173 171.805238,131.138822 181.169278,143.052746 C190.532745,154.966054 197.889057,159.569805 197.889057,159.569805 L267.943251,159.809514 L315.609565,160.132411 L305.730973,142.382303 C305.730973,142.382303 277.140363,115.914584 258.9624,91.4452541 C240.783864,66.9765405 224.241338,40.2746595 224.241338,40.2746595 L179.922193,59.5381946 L164.686411,117.890173" id="Fill-15" fill="#F2D3B3"></path>
            <path d="M220.550562,75.203027 C217.403593,75.203027 212.270695,76.4724324 206.661105,79.836973 C198.816054,84.5417838 194.124282,89.9040973 194.117972,92.1539027 C194.117398,92.3498595 194.15239,92.5224 194.224095,92.6684432 C195.147649,94.5589946 200.66431,101.493892 208.302278,101.493892 C211.017873,101.493892 214.001929,100.617016 217.142015,98.3246919 C223.211087,93.8947135 224.6991,87.3622054 224.6991,82.4959459 C224.698526,79.2737514 224.045728,76.781773 223.637873,76.1174919 C223.287955,75.5462595 222.188294,75.203027 220.550562,75.203027" id="Fill-16" fill="#F7F3ED"></path>
            <path d="M251.350245,57.228 C251.350245,57.228 245.922498,55.4687027 239.78,59.6201514 C233.636928,63.7722162 232.218325,67.2791027 227.390028,69.8530378 C222.561731,72.4275892 216.932064,70.3330703 206.167204,76.3245405 C195.402344,82.316627 193.203595,87.4811351 189.800785,89.8504865 C186.398547,92.2198378 178.827121,97.911827 176.468902,99.8855676 C174.110109,101.858692 174.971711,104.54293 174.971711,104.54293 C174.971711,104.54293 176.000241,103.540962 177.197994,103.261816 C178.395746,102.98267 178.817369,103.253189 178.817369,103.253189 C178.817369,103.253189 192.377559,96.1648541 194.143212,97.4059135 C195.908291,98.646973 204.575936,110.27867 218.346077,101.120465 C232.115645,91.9622595 225.371402,76.1452216 230.130863,73.8159243 C232.116218,72.8447676 234.091822,75.1296973 236.648519,77.414627 C239.423198,79.8942811 242.881078,82.3739351 247.778212,80.6928973 C258.117434,77.1441081 251.973788,62.3068541 251.973788,62.3068541 L252.662152,59.8580108 L251.350245,57.228 M217.142015,98.3246919 C205.16965,107.06387 195.476343,95.2306703 194.224095,92.6684432 C193.331516,90.8425946 198.133426,84.9509514 206.661105,79.836973 C215.189356,74.7223784 222.614505,74.4493946 223.637873,76.1174919 C224.66124,77.7855892 227.231131,90.9609081 217.142015,98.3246919 M247.801157,77.6081189 C241.93171,81.0133297 235.476006,72.2778486 234.670047,70.2794595 C233.864662,68.2810703 234.210565,66.7448432 239.397958,63.3581189 C244.585352,59.9713946 247.987015,61.1212541 249.239264,62.9526486 C251.356555,66.0479027 253.275369,74.4321405 247.801157,77.6081189" id="Fill-17" fill="#000000"></path>
            <path d="M245.442365,61.1890378 C245.360908,61.1890378 245.278305,61.1902703 245.195127,61.1933514 C243.648604,61.272227 241.737821,61.8884432 239.493755,63.3538054 C239.428935,63.3963243 239.364687,63.438227 239.301014,63.4801297 C242.155428,67.7338703 245.29494,72.3345405 248.605969,77.064 C253.071728,73.5626595 251.24527,65.8846054 249.239264,62.9526486 C248.56983,61.9728649 247.285458,61.1884216 245.442365,61.1890378" id="Fill-18" fill="#FAFDFF"></path>
            <path d="M239.301014,63.4801297 C234.297757,66.7793514 233.970211,68.3014054 234.765845,70.2751459 C235.442735,71.9531027 240.103531,78.3833189 245.056307,78.3833189 C245.125717,78.3833189 245.194554,78.3820865 245.26339,78.3796216 C246.10893,78.3340216 246.961354,78.0955459 247.801157,77.6081189 C248.089696,77.4405081 248.357585,77.2587243 248.605969,77.064 C245.29494,72.3345405 242.155428,67.7338703 239.301014,63.4801297" id="Fill-19" fill="#F7F3ED"></path>
            <path d="M245.537588,61.1847243 C245.425155,61.1847243 245.311575,61.1871892 245.195127,61.1933514 C245.278305,61.1902703 245.360908,61.1890378 245.442365,61.1890378 C247.285458,61.1884216 248.56983,61.9728649 249.239264,62.9526486 C251.24527,65.8846054 253.071728,73.5626595 248.605969,77.064 C248.357585,77.2587243 248.089696,77.4405081 247.801157,77.6081189 C246.961354,78.0955459 246.10893,78.3340216 245.26339,78.3796216 C246.14048,78.3475784 247.025601,78.1091027 247.896955,77.6038054 C253.370593,74.427827 251.452353,66.0435892 249.335061,62.9483351 C248.665054,61.9685514 247.381255,61.1847243 245.537588,61.1847243" id="Fill-20" fill="#BFC2C4"></path>
            <path d="M178.302817,139.481157 C178.302817,139.481157 183.507994,136.779665 185.035587,131.777222 C186.562607,126.774162 185.546697,120.343946 185.546697,120.343946 L187.989241,114.272368 C187.989241,114.272368 191.132195,118.415805 193.999803,118.730076 C201.976216,119.604486 205.524157,107.521103 224.93888,104.797427 C231.411793,103.889124 240.788453,101.851914 248.444204,99.011773 C258.010164,95.4623676 258.675582,91.4581946 258.675582,91.4581946 L304.047924,143.383038 L315.000363,159.234584 L197.602239,159.58213 C197.602239,159.58213 191.977735,155.209459 186.88958,149.887816 C181.801999,144.566173 178.302817,139.481157 178.302817,139.481157" id="Fill-21" fill="#E2BB98"></path>
            <path d="M165.654135,120.622476 C165.654135,120.622476 149.947972,114.138649 143.572004,99.1042054 C142.463738,96.4914486 141.655485,93.7314162 141.169615,90.8826486 C140.963679,89.6724 136.909791,82.8539676 136.909791,82.8539676 C136.909791,82.8539676 140.637854,85.5757946 140.632117,84.7537622 C140.553529,72.8299784 146.09543,60.228973 158.619059,50.6283243 C197.363606,20.9254703 184.85145,16.7943568 184.85145,16.7943568 C184.85145,16.7943568 188.675884,15.4559351 191.21824,20.3801189 C193.795015,25.3708541 192.159577,29.2129622 192.159577,29.2129622 C192.159577,29.2129622 197.306816,24.6776108 197.35787,13.4218054 C197.392288,5.8368 188.983353,0.467091892 188.983353,0.467091892 C188.983353,0.467091892 216.749647,-2.00948108 226.999382,20.2088108 C231.598798,30.178573 225.210784,43.6256432 214.372498,49.7650054 C206.524005,54.2103892 189.863311,63.8892973 184.835388,67.7461946 C175.186251,75.1475676 174.815108,82.6703351 174.815108,82.6703351 L179.007243,80.2405946 C179.007243,80.2405946 175.865436,85.2744649 174.220821,90.0156324 C172.156304,95.9676649 187.989241,114.272368 187.989241,114.272368 L185.554728,120.549146 C185.554728,120.549146 179.925061,113.606854 176.5538,113.039319 C172.380022,112.336216 165.654135,120.622476 165.654135,120.622476" id="Fill-22" fill="#442211"></path>
            <polyline id="Fill-23" fill="#442211" points="190.039417 116.109308 188.077007 122.076746 187.040446 121.059373 189.181257 115.456119 190.039417 116.109308"></polyline>
            <path d="M227.354463,20.4497514 C221.635882,4.80895135 207.041425,3.17043243 207.041425,3.17043243 C207.041425,3.17043243 217.0009,5.09857297 220.710606,22.5627568 C225.385743,44.5721514 199.456805,57.9415784 199.456805,57.9415784 C199.456805,57.9415784 203.572073,56.4096649 208.166326,54.409427 C217.206835,50.4724216 233.011091,35.9229405 227.354463,20.4497514" id="Fill-24" fill="#603719"></path>
            <path d="M183.517172,122.285643 C183.735727,127.896292 179.679545,132.634995 174.456585,132.869773 C169.233626,133.104551 164.822363,128.74667 164.603807,123.136638 C164.384678,117.525989 168.441435,112.787286 173.664394,112.552508 C178.887353,112.31773 183.298616,116.674995 183.517172,122.285643" id="Fill-25" fill="#F2D3B3"></path>
            <polyline id="Fill-26" fill="#F2D3B3" points="236.325562 82.6986811 245.798019 80.2165622 247.96407 86.6979243 246.256928 92.6413297 238.636169 92.8742595 236.325562 82.6986811"></polyline>
            <path d="M235.492068,83.0388324 C235.492068,83.0388324 243.392762,79.968227 245.525542,81.1106919 C247.658322,82.2531568 246.156542,89.4893838 244.997223,91.4957838 C243.838477,93.5028 237.719498,92.6967892 237.719498,92.6967892 C237.719498,92.6967892 243.556248,94.679773 246.256928,92.6413297 C248.957608,90.6035027 249.788234,80.9689622 247.259645,79.4943568 C244.731055,78.0197514 235.492068,83.0388324 235.492068,83.0388324" id="Fill-27" fill="#C69E87"></path>
            <polyline id="Fill-28" fill="#442211" points="202.090944 68.5540541 211.668376 59.9603027 219.419925 63.8701946 210.542328 64.98 202.090944 68.5540541"></polyline>
            <polyline id="Fill-29" fill="#442211" points="228.638261 62.7973622 231.005085 55.2715135 237.282387 56.0608865 232.121381 58.860973 228.638261 62.7973622"></polyline>
            <path d="M251.943959,102.863124 C251.943959,102.863124 244.636979,106.891946 235.813305,108.831178 C226.98963,110.769795 221.831492,111.002108 218.369023,110.541178 C214.90598,110.080249 214.16771,120.598443 214.16771,120.598443 C214.16771,120.598443 223.410139,122.032378 234.143449,117.540778 C244.876759,113.049178 251.943959,102.863124 251.943959,102.863124" id="Fill-30" fill="#442F26"></path>
            <path d="M217.401872,112.742919 C216.315978,114.333989 217.187905,117.069989 217.187905,117.069989 C217.187905,117.069989 224.364096,117.055816 232.017553,114.552746 C239.671009,112.049676 241.807231,107.944443 241.807231,107.944443 C241.807231,107.944443 235.582703,110.280519 228.156406,111.231341 C220.729536,112.182162 218.488339,111.152465 217.401872,112.742919" id="Fill-31" fill="#FFFFFF"></path>
            <path d="M244.806775,118.603135 C244.806775,118.603135 245.773926,121.334822 240.425341,124.042476 C235.076755,126.75013 228.174763,126.44387 228.174763,126.44387 C228.174763,126.44387 234.982105,131.688486 240.593416,128.352292 C246.204727,125.016097 244.806775,118.603135 244.806775,118.603135" id="Fill-32" fill="#CEA282"></path>
            <polyline id="Fill-33" fill="#A7AAAF" points="367.207008 195.021957 397.508202 137.739114 409.718625 136.778432 469.764585 184.651038 460.756774 199.035989 408.704436 159.849568 389.250133 240.080919 364.035946 260.951546 367.207008 195.021957"></polyline>
            <polyline id="Fill-34" fill="#838991" points="403.995455 176.508357 422.301913 164.994357 429.339284 168.789632 460.268609 225.784086 447.135205 232.542746 422.880138 189.638692 418.75684 191.87987 418.18263 186.971708 393.894866 221.78053 403.995455 176.508357"></polyline>
            <polyline id="Fill-35" fill="#000000" points="466.181079 184.799546 473.961309 181.988368 502.963216 158.541957 506.807154 161.873222 479.939174 197.552757 475.192906 198.214573 475.880123 202.002454 469.344684 210.680627 455.651984 198.782108 466.181079 184.799546"></polyline>
            <path d="M188.407995,159.379395 C188.407995,159.379395 222.060946,202.785665 268.841565,234.396941 C315.622758,266.008216 364.339974,268.750378 364.339974,268.750378 L376.538925,208.581795 L369.355276,191.224832 L377.535331,175.232173 L336.760111,160.208822 L287.112457,123.792292 L303.118059,151.443146 L278.360487,144.744876 L259.541773,143.124227 C259.541773,143.124227 235.089949,154.092259 216.065873,157.004497 C197.041223,159.916119 188.407995,159.379395 188.407995,159.379395" id="Fill-36" fill="#97DCFF"></path>
            <polyline id="Fill-37" fill="#79BFF2" points="258.761627 142.748335 276.831746 144.813276 258.683613 150.563805 258.761627 142.748335"></polyline>
            <path d="M188.507808,159.477373 C188.507808,159.477373 198.275115,159.654843 220.39568,155.164476 C238.945933,151.399395 259.318628,142.312054 259.318628,142.312054 L259.512517,157.105557 C259.512517,157.105557 244.293371,159.434854 221.766097,160.859546 C199.238824,162.284238 188.507808,159.477373 188.507808,159.477373" id="Fill-38" fill="#82CCF9"></path>
            <polyline id="Fill-39" fill="#82CCF9" points="283.619012 120.094995 295.542044 124.029535 290.92255 130.713632 283.619012 120.094995"></polyline>
            <path d="M318.032031,160.640173 C318.094557,162.233092 316.942695,163.578908 315.459272,163.645459 C313.976422,163.712011 312.7236,162.474649 312.661647,160.88173 C312.599121,159.288195 313.750983,157.942995 315.234406,157.875827 C316.717256,157.809276 317.970078,159.046638 318.032031,160.640173" id="Fill-40" fill="#E8F3F9"></path>
            <path d="M339.328281,171.811557 C339.390234,173.404476 338.238372,174.750292 336.755522,174.816843 C335.272098,174.883395 334.019276,173.646032 333.957324,172.053114 C333.895371,170.459578 335.047233,169.114378 336.530083,169.047211 C338.013506,168.980659 339.266328,170.218022 339.328281,171.811557" id="Fill-41" fill="#E8F3F9"></path>
            <path d="M359.382035,180.571686 C359.443987,182.164605 358.292125,183.510422 356.808702,183.576973 C355.325852,183.644141 354.07303,182.406778 354.011077,180.813243 C353.949125,179.220324 355.100986,177.874508 356.583836,177.807957 C358.06726,177.740789 359.319508,178.978768 359.382035,180.571686" id="Fill-42" fill="#E8F3F9"></path>
            <path d="M259.524564,216.313459 C260.015023,228.894746 250.918871,239.520778 239.206937,240.047643 C227.495004,240.574508 217.603218,230.802551 217.112759,218.221881 C216.6223,205.640595 225.719025,195.014562 237.430385,194.487697 C249.142319,193.960216 259.034105,203.732173 259.524564,216.313459" id="Fill-43" fill="#FFFFFF"></path>
            <path d="M295.196715,247.704746 C295.999232,268.276508 281.124841,285.651957 261.974565,286.513427 C242.824288,287.374897 226.650037,271.397027 225.84752,250.825265 C225.045576,230.253503 239.919967,212.878054 259.070244,212.016584 C278.22052,211.155114 294.394771,227.132984 295.196715,247.704746" id="Fill-44" fill="#FFFFFF"></path>
            <path d="M474.170686,243.661751 C474.654835,256.072346 465.680868,266.555416 454.127258,267.074886 C442.574222,267.594973 432.816094,257.954886 432.331945,245.543676 C431.848369,233.133081 440.821763,222.650627 452.375373,222.130541 C463.928409,221.610454 473.687111,231.250541 474.170686,243.661751" id="Fill-45" fill="#FFFFFF"></path>
            <path d="M586.256364,318.583784 C586.256364,331.516314 576.497088,342 564.458182,342 C552.419275,342 542.66,331.516314 542.66,318.583784 C542.66,305.651254 552.419275,295.167568 564.458182,295.167568 C576.497088,295.167568 586.256364,305.651254 586.256364,318.583784" id="Fill-46" fill="#FFFFFF"></path>
            <path d="M580.635875,264.775168 C581.285231,281.436422 569.238294,295.508951 553.728314,296.207124 C538.218334,296.904681 525.1182,283.963524 524.46827,267.30227 C523.818914,250.641016 535.865851,236.568486 551.375831,235.870314 C566.885811,235.172757 579.985945,248.113914 580.635875,264.775168" id="Fill-47" fill="#FFFFFF"></path>
            <path d="M614.364545,292.702703 C614.364545,309.378746 601.780111,322.897297 586.256364,322.897297 C570.732616,322.897297 558.148182,309.378746 558.148182,292.702703 C558.148182,276.026659 570.732616,262.508108 586.256364,262.508108 C601.780111,262.508108 614.364545,276.026659 614.364545,292.702703" id="Fill-48" fill="#FFFFFF"></path>
            <path d="M617.536181,128.562422 C615.553694,101.743459 582.680315,92.9069189 569.24403,115.870832 C560.528773,110.578151 549.413995,116.805632 548.7176,127.747168 C539.162539,129.004249 531.760909,137.745892 531.760909,148.349741 C531.760909,159.816908 540.414787,169.113762 551.089586,169.113762 L611.670749,169.113762 C622.346122,169.113762 631,159.816908 631,148.349741 C631,139.079384 625.343372,131.230022 617.536181,128.562422" id="Fill-49" fill="#FFFFFF"></path>
        </g>
    </g>
</svg>